<svg id="Layer_1" data-name="Layer 1" xmlns="http://www.w3.org/2000/svg" viewBox="0 0 119.13 75.75"><title>logo_white</title><path d="M75.28,22.7c5.43-4.3,6.24-9.13,4.48-11.19S73.28,9.69,68,14.15a31.17,31.17,0,0,0-7.23,10.08,31.13,31.13,0,0,0-7.22-10.08c-5.31-4.46-10-4.72-11.78-2.64s-1,6.89,4.48,11.19A30.88,30.88,0,0,0,51.57,26H38.08V65.44h20V28.57h5.36V65.44h20V26H69.93A31,31,0,0,0,75.28,22.7ZM48.42,20.13c-5.25-4.49-2.25-7.81,2.91-3.41,2.21,1.89,5.14,5.59,5.16,7.34C54.75,24.32,50.63,22,48.42,20.13ZM65,24.06c0-1.75,3-5.45,5.16-7.34,5.15-4.4,8.16-1.08,2.9,3.41C70.87,22,66.75,24.32,65,24.06Z" transform="translate(-16.04 -10.25)" fill="#fff"/><path d="M111.84,62.18h-.54c-.1-2.12-.21-4.74-.21-6.13,0-1.72-1.16-2.52-2.9-2.73-2.11-.26-3.54-.48-6.3-.93-1.12-.18-1.62-2.86-2.08-4.63a7.47,7.47,0,0,0-1.74-3.26,6.05,6.05,0,0,0-3.85-1.27H85.45V65.44H98.26a5.27,5.27,0,0,1,10.54,0h3a1.28,1.28,0,0,0,1.29-1.28v-.7A1.29,1.29,0,0,0,111.84,62.18Z" transform="translate(-16.04 -10.25)" fill="#fff"/><path d="M103.53,61.81a3.63,3.63,0,0,0-3.63,3.63h7.27A3.64,3.64,0,0,0,103.53,61.81Z" transform="translate(-16.04 -10.25)" fill="#fff"/><text transform="translate(0 69.16)" font-size="11.13" fill="#fff" font-family="HiraKakuStd-W8-83pv-RKSJ-H, Hiragino Kaku Gothic Std"><tspan xml:space="preserve"> Cheetah Services</tspan></text></svg>